CAMPUS
<svg width="24" height="24" viewBox="0 0 24 24" xmlns="http://www.w3.org/2000/svg" xmlns:xlink="http://www.w3.org/1999/xlink"><title>icon/new/campus</title><defs><path d="M20.33 22v-9.17h.84c.5 0 .83.34.83.84v7.5c0 .5-.33.83-.83.83h-.84zm-16.66-.83V22h-.84c-.5 0-.83-.33-.83-.83v-7.5c0-.5.33-.84.83-.84h.84v8.34zM17.83 2c.5 0 .84.33.84.83v18.34c0 .5-.34.83-.84.83h-5v-3.33h-1.66V22h-5c-.5 0-.84-.33-.84-.83V2.83c0-.5.34-.83.84-.83h11.66zm-7.5 14.17V14.5h-2.5v1.67h2.5zm0-3.34v-1.66h-2.5v1.66h2.5zm0-3.33V7.83h-2.5V9.5h2.5zm0-3.33V4.5h-2.5v1.67h2.5zm5.84 10V14.5h-2.5v1.67h2.5zm0-3.34v-1.66h-2.5v1.66h2.5zm0-3.33V7.83h-2.5V9.5h2.5zm0-3.33V4.5h-2.5v1.67h2.5z" id="a"/></defs><g fill="none" fill-rule="evenodd"><path d="M0 0h24v24H0z"/><mask id="b" fill="#fff"><use xlink:href="#a"/></mask><use fill="#444" fill-rule="nonzero" xlink:href="#a"/><path d="M0 0h24v24H0z" mask="url(#b)" fill="#1C683E"/></g></svg>
